<svg width="890" height="1059" viewBox="0 0 890 1059" fill="none" xmlns="http://www.w3.org/2000/svg">
<path d="M855.453 273.089C878.041 327.021 890 385.394 890 445V1026.77C889.095 1026.36 888.175 1026.13 887.264 1026.12C889.534 1022.86 887.997 1017.31 884.84 1012.85C883.513 1010.97 879.445 1007.42 873.787 1008.23C872.131 993.497 870.117 981.177 864.271 973.389C864.122 973.19 863.969 972.986 863.814 972.777C857.877 964.838 847.131 950.469 815.073 947.351C788.753 944.791 780.756 943.428 780.047 943.066C768.587 941.992 759.035 929.323 767.798 912.451C767.94 912.258 768.091 912.047 768.252 911.823C771.385 907.459 778.287 897.845 792.358 904.071C802.825 909.225 810.66 925.687 791.223 926.548C796.594 923.641 796.58 917.608 793.611 914.841C790.642 912.073 787.629 910.435 782.021 913.853C776.62 917.144 774 929.539 782.361 936.347C790.225 941.437 798.299 941.463 806.726 930.651C813.152 936.988 827.111 946.971 842.378 932.357C842.105 932.23 841.315 932.01 840.174 931.693C834.914 930.229 822.193 926.688 818.162 920.569C817.522 919.597 816.832 918.483 816.084 917.273L816.083 917.271C811.101 909.22 803.513 896.955 790.416 894.273C790.763 893.967 791.409 893.523 792.256 892.939C796.259 890.183 804.77 884.321 807.73 875.269L808.207 874.973C808.086 874.951 807.965 874.929 807.844 874.909C807.869 874.829 807.893 874.749 807.916 874.669L807.928 874.629L807.547 874.861C798.133 873.416 789.061 878.366 784.795 880.693C783.891 881.186 783.203 881.561 782.774 881.733C786.292 868.836 778.773 856.528 773.837 848.449C773.095 847.234 772.412 846.115 771.833 845.104C768.192 838.747 770.774 825.796 771.842 820.442C772.074 819.281 772.234 818.477 772.244 818.175C752.312 825.202 754.92 842.165 757.674 850.758C744.222 853.399 740.601 860.615 741.594 869.93C743.895 880.463 756.138 883.72 761.513 880.387C767.094 876.925 766.992 873.497 765.862 869.598C764.733 865.7 759.356 862.964 754.338 866.444C763.879 849.489 775.032 863.911 774.908 875.578C774.112 890.943 762.418 892.763 757.109 893.589C756.836 893.632 756.58 893.672 756.344 893.711C737.333 893.915 730.34 879.673 734.553 868.962C734.551 868.166 736.944 860.415 746.54 835.773C758.227 805.759 750.256 789.684 745.851 780.803C745.736 780.57 745.623 780.342 745.512 780.119C741.201 771.387 731.117 764.028 718.715 755.9C721.993 751.217 720.662 745.985 719.586 743.954C717.443 739.908 714.113 736.534 710.779 735.868C711.909 732.567 710.389 727.878 707.649 724.002C706.322 722.125 702.254 718.575 696.596 719.387C694.94 704.652 692.926 692.332 687.08 684.543C686.933 684.347 686.784 684.147 686.63 683.942L686.623 683.932C680.685 675.993 669.94 661.624 637.882 658.505C611.562 655.945 603.565 654.582 602.856 654.221C591.396 653.146 581.844 640.477 590.607 623.606C590.749 623.412 590.9 623.202 591.061 622.977C594.194 618.613 601.096 609 615.167 615.225C625.634 620.38 633.469 636.842 614.032 637.703C619.403 634.796 619.389 628.763 616.42 625.995C613.451 623.228 610.438 621.589 604.83 625.007C599.429 628.299 596.809 640.693 605.17 647.501C613.034 652.591 621.108 652.618 629.535 641.806C635.961 648.142 649.92 658.126 665.187 643.512C664.914 643.385 664.124 643.165 662.983 642.847C657.723 641.383 645.002 637.843 640.972 631.724C640.331 630.751 639.642 629.637 638.893 628.428L638.892 628.426C633.91 620.374 626.322 608.109 613.225 605.428C613.572 605.122 614.218 604.677 615.066 604.093C619.161 601.273 627.979 595.2 630.737 585.784L598.956 605.153C598.201 605.599 597.393 606.122 596.549 606.718C599.197 601.085 599.325 593.999 595.072 578.965C594.94 578.5 594.807 578.031 594.672 577.557L594.364 576.475C588.529 555.975 580.568 528.004 595.271 509.003C595.365 508.884 595.468 508.749 595.581 508.601C595.651 508.51 595.724 508.413 595.801 508.312C599.615 503.293 612.659 486.128 636.863 494.727L636.871 494.731C641.757 497.373 651.521 502.652 650.589 521.575C650.073 523.754 645.918 538.18 629.218 533.63C625.671 532.832 612.157 522.442 619.68 512.845C622.091 509.769 629.947 506.591 636.181 519.423C636.196 519.383 636.213 519.336 636.231 519.284C636.856 517.559 639.658 509.817 634.11 505.083C628.395 500.206 623.898 499.859 617.788 501.823C616.305 502.448 610.697 505.8 609.012 513.02C608.99 513.137 608.967 513.26 608.943 513.39C608.208 517.291 606.431 526.734 617.332 536.625C616.596 536.41 615.78 536.256 614.905 536.09L614.904 536.09C610.019 535.168 603.317 533.902 598.577 519.742C596.358 522.572 590.219 540.797 613.988 551.285C613.599 551.469 613.147 551.675 612.643 551.904L612.641 551.905C608.224 553.917 599.764 557.77 594.052 565.057C599.963 565.121 610.184 563.995 616.952 561.951C612.912 568.12 603.924 587.697 604.271 597.9L626.261 569.848C625.555 567.706 625.409 562.823 629.488 557.873C629.462 557.764 629.399 557.518 629.308 557.164C628.586 554.359 626.117 544.766 626.746 542.613C629.363 543.076 643.388 543.943 648.064 540.259C653.622 535.88 656.13 531.489 659.225 525.767C661.268 517.837 664.013 506.275 654.997 493.646C652.343 490.136 649.805 487.594 644.675 484.76C637.124 481.888 623.517 473.578 629.489 463.322C638.022 455.073 649.341 466.303 653.934 472.949C657.911 477.254 660.985 479.112 665.027 480.85C679.444 486.589 690.016 481.163 697.228 477.285C702.046 472.914 705.71 469.43 708.635 462.986C711.096 457.566 706.906 444.154 705.831 441.723C707.771 440.598 717.676 440.704 720.572 440.736L720.578 440.736L720.612 440.736C720.956 440.74 721.196 440.742 721.304 440.741C725.137 435.598 729.913 434.574 732.161 434.748L754.151 406.695C744.16 408.795 727.296 422.198 722.271 427.594C722.639 420.534 721.291 410.34 719.817 404.616C714.105 411.902 712.384 421.037 711.486 425.807L711.484 425.813C711.438 426.057 711.394 426.29 711.352 426.511C711.336 426.598 711.319 426.683 711.303 426.767C711.269 426.941 711.236 427.106 711.205 427.263C695.344 406.686 679.112 417.001 676.894 419.831C691.776 421.052 694.606 427.258 696.668 431.781C697.038 432.591 697.383 433.348 697.768 434.012C685.56 425.788 676.814 429.769 673.201 431.414C673.081 431.468 672.967 431.52 672.859 431.569C666.25 434.93 664.335 441.176 664.082 442.765C663.634 449.168 665.044 453.452 671.145 457.836C677.067 462.093 683.916 457.523 685.442 456.505L685.449 456.501C685.492 456.472 685.531 456.446 685.565 456.423C671.615 453.434 672.825 445.046 675.236 441.97C682.759 432.373 696.076 443.015 697.698 446.268C706.104 461.399 693.088 468.879 691.096 469.9C672.942 475.324 665.484 467.104 661.752 462.989L661.746 462.983C647.616 441.533 661.169 424.767 665.132 419.865C665.342 419.605 665.526 419.378 665.676 419.186C680.616 400.37 709.679 401.421 730.98 402.191C731.856 402.223 732.719 402.254 733.567 402.284C755.04 403.026 759.938 399.313 765.821 391.808C779.683 374.124 766.511 354.894 757.314 346.699C767.51 353.658 789.233 361.746 803.05 344.12C808.934 336.615 811.37 330.972 805.521 310.297C805.289 309.481 805.053 308.65 804.813 307.807C798.978 287.307 791.017 259.336 805.72 240.335C805.871 240.143 806.048 239.91 806.25 239.644C809.106 235.885 817.14 225.314 831.161 223.854C832.728 226.591 834.266 229.343 835.774 232.111C833.416 231.854 830.991 232.27 828.237 233.156C826.754 233.78 821.146 237.132 819.461 244.352C819.439 244.469 819.416 244.592 819.392 244.722C818.657 248.623 816.88 258.066 827.781 267.957C827.045 267.742 826.228 267.587 825.353 267.422C820.468 266.5 813.766 265.234 809.026 251.074C806.807 253.904 800.668 272.129 824.437 282.617C824.048 282.801 823.596 283.007 823.092 283.236L823.09 283.237C818.673 285.249 810.213 289.102 804.501 296.389C810.412 296.453 820.633 295.327 827.401 293.283C823.361 299.452 814.373 319.029 814.72 329.232L836.71 301.18C836.004 299.038 835.858 294.155 839.937 289.205C839.929 289.171 839.917 289.122 839.902 289.061L839.876 288.96L839.85 288.857L839.757 288.496C839.035 285.692 836.566 276.098 837.195 273.945C839.372 274.33 849.435 274.994 855.453 273.089Z" fill="url(#paint0_linear_39_9)"/>
<path d="M851.822 264.663C848.766 257.77 845.535 250.954 842.131 244.221C837.053 239.388 831.982 241.812 830.129 244.177C822.606 253.774 836.12 264.164 839.667 264.962C844.83 266.368 848.794 265.961 851.822 264.663Z" fill="url(#paint1_linear_39_9)"/>
<path d="M217.839 302.915C216.608 309.132 216.813 315.843 219.907 321.991C215.893 317.436 209.393 313.033 207.7 312.13C208.449 310.258 214.878 305.199 217.839 302.915Z" fill="url(#paint2_linear_39_9)"/>
<path d="M208.284 994.53C208.467 993.843 208.717 993.146 209.025 992.449C208.354 993.153 207.874 993.759 207.7 994.194C207.856 994.277 208.053 994.39 208.284 994.53Z" fill="url(#paint3_linear_39_9)"/>
<path fill-rule="evenodd" clip-rule="evenodd" d="M825.687 214.557C807.297 184.177 785.191 155.866 759.663 130.337C676.209 46.8838 563.021 8.91037e-06 445 0C326.979 -8.91036e-06 213.791 46.8838 130.338 130.337C67.0553 193.62 24.801 273.999 8.07167 360.618C9.1881 360.825 10.3407 361.212 11.4907 361.845C18.2341 348.638 24.462 337.819 32.6776 332.591C32.8877 332.457 33.1023 332.32 33.3216 332.18C41.6759 326.844 56.7968 317.185 87.8966 325.567C113.429 332.448 121.394 333.992 122.184 333.904C133.288 336.937 146.693 328.448 144.439 309.571C144.374 309.34 144.307 309.089 144.235 308.823C142.842 303.634 139.771 292.205 124.409 293.071C112.797 294.206 99.6623 306.849 117.548 314.506C113.547 309.893 115.687 304.252 119.44 302.708C123.194 301.165 126.591 300.693 130.635 305.869C134.529 310.853 132.612 323.376 122.387 326.799C113.234 328.791 105.669 325.969 101.594 312.881C93.347 316.546 76.7648 320.968 67.6289 301.911C67.9295 301.888 68.7457 301.961 69.9251 302.066L69.9262 302.066C75.3639 302.55 88.5173 303.72 94.4454 299.415C95.3881 298.73 96.4267 297.93 97.554 297.061C105.054 291.283 116.479 282.48 129.68 284.587C129.463 284.178 129.016 283.535 128.428 282.69C125.59 278.606 119.478 269.815 120.216 260.031L143.13 289.359C150.249 298.218 161.242 322.44 142.147 337.358C134.632 343.229 128.986 345.656 108.321 339.774C107.513 339.544 106.692 339.309 105.858 339.07L105.832 339.062C85.3408 333.195 57.3825 325.189 38.3579 339.862C38.17 340.008 37.9441 340.18 37.6855 340.376L37.6838 340.377L37.6743 340.384L37.6664 340.39C32.6418 344.196 15.4556 357.213 24.0149 381.43L24.0191 381.438C26.6534 386.329 31.9165 396.101 50.8418 395.199C53.021 394.687 67.4534 390.555 62.9305 373.847C62.1382 370.299 51.7696 356.769 42.1607 364.276C39.0809 366.683 35.8903 374.533 48.7127 380.788L48.6515 380.81L48.5737 380.838C46.8472 381.46 39.1012 384.249 34.3755 378.694C29.5078 372.971 29.1682 368.474 31.1424 362.367C31.7697 360.885 35.1301 355.283 42.3529 353.608C42.4141 353.597 42.4771 353.586 42.5418 353.574L42.7162 353.541L42.7228 353.54C46.6252 352.812 56.0711 351.05 65.9447 361.967C65.7305 361.23 65.5775 360.413 65.4137 359.537C64.499 354.651 63.2441 347.947 49.0915 343.184C51.9249 340.97 70.1601 334.86 80.6097 358.646C80.7947 358.257 81.0014 357.805 81.2324 357.3C83.2509 352.886 87.1175 344.433 94.4134 338.733C94.4683 344.643 93.3264 354.862 91.2715 361.627C97.4467 357.597 117.038 348.641 127.241 349.004L99.1531 370.949C97.0122 370.24 92.1301 370.085 87.1731 374.156C87.1292 374.146 87.0633 374.13 86.9771 374.108C86.8592 374.077 86.7036 374.037 86.5149 373.988L86.4791 373.979L86.4639 373.975L86.4623 373.975C83.6557 373.248 74.0712 370.765 71.918 371.39C72.3766 374.008 73.2207 388.034 69.5291 392.704C65.141 398.256 60.7465 400.757 55.0193 403.842C47.0867 405.872 35.5201 408.598 22.9052 399.562C19.3995 396.903 16.8619 394.361 14.0364 389.226C12.5163 385.212 9.46407 379.485 5.39704 375.892C1.82543 398.612 3.51638e-06 421.712 0 445V1058.29H853.962C854.966 1056.71 856.159 1055.13 857.572 1053.55C860.594 1050.35 863.395 1048.1 868.805 1045.84C876.624 1043.82 891.06 1037.05 886.245 1026.2C886.507 1026.15 886.771 1026.12 887.035 1026.12C879.515 1017.18 867.064 1026.93 861.753 1032.96C857.299 1036.77 854.028 1038.25 849.81 1039.51C834.819 1043.52 824.956 1036.89 818.248 1032.19C813.976 1027.28 810.745 1023.4 808.596 1016.65C806.787 1010.98 812.521 998.154 813.873 995.865C812.079 994.521 802.234 993.466 799.351 993.157L799.35 993.157L799.347 993.157C799.195 993.141 799.062 993.126 798.951 993.114C798.875 993.106 798.809 993.099 798.754 993.093C798.699 993.086 798.655 993.081 798.622 993.077C795.419 987.52 790.795 985.943 788.542 985.852L769.992 955.415C779.669 958.672 794.845 973.959 799.203 979.907C799.665 972.852 802.198 962.886 804.333 957.375C809.152 965.281 809.79 974.554 810.123 979.396C810.14 979.629 810.155 979.851 810.17 980.063C810.191 980.355 810.211 980.626 810.232 980.875C828.395 962.299 843.306 974.446 845.177 977.516C830.254 976.984 826.717 982.816 824.138 987.066C823.676 987.828 823.245 988.538 822.785 989.153C835.873 982.416 844.091 987.395 847.487 989.452C847.599 989.52 847.707 989.585 847.809 989.647C853.978 993.759 855.148 1000.19 855.212 1001.79C854.907 1008.21 853.004 1012.29 846.432 1015.93C840.051 1019.47 833.785 1014.13 832.389 1012.94C832.347 1012.9 832.31 1012.87 832.276 1012.84C846.481 1011.51 846.262 1003.03 844.228 999.697C837.882 989.285 823.41 998.292 821.418 1001.33C811.296 1015.37 823.346 1024.33 825.204 1025.58C842.597 1033.09 850.967 1025.8 855.156 1022.15L855.163 1022.15C871.709 1002.5 860.215 984.262 856.854 978.929L856.852 978.926C856.777 978.807 856.706 978.693 856.639 978.587C856.548 978.442 856.466 978.31 856.393 978.19C843.761 957.753 814.776 955.39 793.532 953.659L792.24 953.553C791.807 953.518 791.378 953.482 790.952 953.447C769.539 951.667 765.111 947.406 760.148 939.263C749.393 921.615 761.504 905.349 771.37 897.359C759.779 902.544 739.842 905.971 728.966 888.435C723.939 880.331 722.136 874.456 730.213 854.545C730.532 853.759 730.857 852.959 731.188 852.148C739.232 832.409 750.207 805.478 737.672 784.981C737.543 784.774 737.393 784.524 737.221 784.237C733.979 778.831 722.892 760.341 697.893 766.238L697.885 766.242C692.738 768.333 682.455 772.511 681.311 791.424C681.584 793.645 684.135 808.439 701.234 805.745C704.847 805.34 719.416 796.491 712.989 786.129C710.929 782.807 703.468 778.788 695.867 790.861C695.857 790.819 695.845 790.771 695.832 790.718C695.401 788.934 693.463 780.933 699.496 776.834C705.71 772.612 710.218 772.759 716.076 775.381C717.482 776.164 722.689 780.109 723.574 787.47C723.583 787.589 723.592 787.714 723.602 787.845C723.905 791.804 724.638 801.384 712.72 810.023C713.476 809.89 714.304 809.826 715.192 809.757C720.149 809.375 726.949 808.85 733.211 795.294C735.106 798.35 739.214 817.138 714.44 824.961C714.807 825.187 715.234 825.441 715.711 825.725C719.88 828.208 727.868 832.964 732.748 840.832C726.866 840.249 716.83 838.011 710.326 835.239C713.667 841.812 720.457 862.255 718.996 872.36L700.209 842.069C701.144 840.017 701.825 835.18 698.312 829.813C698.349 829.707 698.439 829.47 698.568 829.128C699.593 826.419 703.097 817.154 702.707 814.945C700.055 815.119 686.02 814.445 681.775 810.271C676.73 805.31 674.717 800.671 672.267 794.645C671.105 786.539 669.642 774.746 679.986 763.179C683.008 759.981 685.809 757.732 691.219 755.477C698.952 753.471 713.156 746.827 708.812 736.188C701.23 729.193 689.637 738.353 684.562 744.114C680.108 747.924 676.837 749.408 672.619 750.66C657.629 754.67 647.765 748.042 641.057 743.346C636.785 738.439 633.555 734.55 631.405 727.808C629.596 722.136 635.33 709.309 636.682 707.02C634.888 705.676 625.047 704.621 622.162 704.312L622.161 704.312L622.159 704.312L622.154 704.311C621.793 704.272 621.542 704.246 621.431 704.231C618.228 698.674 613.604 697.098 611.351 697.007L592.801 666.57C602.478 669.827 617.654 685.113 622.012 691.062C622.474 684.007 625.008 674.041 627.142 668.529C631.961 676.435 632.599 685.709 632.933 690.551C632.971 691.105 633.005 691.601 633.041 692.03C651.204 673.454 666.115 685.6 667.986 688.671C653.063 688.139 649.526 693.97 646.947 698.221C646.485 698.982 646.054 699.693 645.594 700.307C658.682 693.571 666.9 698.55 670.296 700.607C670.408 700.675 670.516 700.74 670.618 700.801C676.787 704.914 677.957 711.341 678.021 712.949C677.716 719.36 675.813 723.449 669.241 727.088C662.86 730.621 656.594 725.28 655.198 724.09C655.156 724.054 655.119 724.022 655.086 723.995C669.29 722.661 669.071 714.189 667.037 710.852C660.691 700.439 646.219 709.446 644.227 712.488C634.105 726.529 646.155 735.483 648.013 736.73C665.406 744.245 673.776 736.955 677.965 733.307L677.972 733.301C694.518 713.655 683.024 695.416 679.663 690.083C679.575 689.944 679.492 689.812 679.416 689.691C679.338 689.566 679.266 689.45 679.202 689.345C666.571 668.908 637.585 666.545 616.341 664.813C615.467 664.742 614.607 664.672 613.761 664.601C592.348 662.822 587.92 658.56 582.957 650.417C576.193 639.319 578.473 628.766 583.551 620.476C569.256 627.927 551.818 619.513 544.601 613.694L515.31 590.733C525.095 590.01 533.877 596.136 537.955 598.981L537.956 598.982C538.8 599.571 539.442 600.019 539.85 600.237C537.765 587.032 546.586 575.621 552.376 568.13C553.247 567.004 554.049 565.967 554.735 565.026C559.05 559.104 557.9 545.949 557.425 540.511L557.425 540.509C557.322 539.33 557.25 538.514 557.274 538.213C576.316 547.379 571.867 563.955 568.19 572.195C581.271 576.292 584.081 583.861 582.074 593.011C578.634 603.23 566.109 605.127 561.131 601.225C555.962 597.173 556.438 593.777 557.988 590.026C559.538 586.274 565.182 584.144 569.789 588.152C562.161 570.254 549.496 583.369 548.343 594.979C547.452 610.34 558.877 613.428 564.063 614.831C564.329 614.903 564.58 614.97 564.811 615.035C583.685 617.319 592.195 603.928 589.179 592.82C589.269 592.029 587.738 584.062 580.897 558.519C572.565 527.405 582.248 512.3 587.598 503.954L587.6 503.951C587.74 503.733 587.877 503.52 588.01 503.311C593.251 495.104 604.08 488.893 617.298 482.171C614.551 477.158 616.447 472.102 617.739 470.201C620.86 465.608 625.61 462.188 629.489 463.322C627.461 459.826 629.648 454.397 633.363 450.269C634.901 448.561 639.357 445.512 644.881 446.982C648.252 432.542 651.697 420.543 658.415 413.494L658.586 413.314C658.703 413.191 658.821 413.066 658.941 412.94C665.768 405.752 678.124 392.741 710.327 393.402C736.765 393.945 744.867 393.529 745.613 393.253C757.12 393.529 768.092 382.067 761.366 364.285C761.248 364.076 761.123 363.849 760.989 363.607C758.389 358.906 752.661 348.55 737.958 353.083C726.959 356.975 717.248 372.405 736.45 375.539C731.457 372.022 732.179 366.032 735.451 363.632C738.724 361.231 741.908 359.957 747.077 364.009C752.055 367.911 753.204 380.527 744.103 386.308C735.696 390.442 727.675 389.521 720.573 377.796C713.449 383.336 698.416 391.614 684.967 375.311C685.253 375.217 686.061 375.092 687.228 374.911L687.233 374.91L687.234 374.91C692.629 374.072 705.678 372.047 710.398 366.443C711.148 365.552 711.964 364.526 712.849 363.412C718.74 356 727.714 344.708 741.035 343.58C740.726 343.236 740.138 342.72 739.366 342.041L739.364 342.04C735.656 338.784 727.705 331.803 725.985 322.243L725.759 322.065C725.823 322.061 725.888 322.056 725.952 322.052L725.946 322.019L725.985 322.05C735.679 321.437 744.357 327.49 748.404 330.313L748.405 330.314L748.407 330.316C749.25 330.904 749.891 331.351 750.299 331.569C748.214 318.364 757.035 306.953 762.825 299.462L762.828 299.459C763.697 298.334 764.498 297.298 765.184 296.358C769.499 290.436 768.349 277.281 767.874 271.843L767.874 271.841L767.873 271.831L767.872 271.824V271.823C767.77 270.653 767.7 269.844 767.723 269.545C786.765 278.711 782.316 295.287 778.638 303.527C791.72 307.624 794.53 315.193 792.523 324.343C789.083 334.562 776.558 336.459 771.58 332.557C766.411 328.505 766.887 325.109 768.437 321.358C769.987 317.606 775.631 315.476 780.238 319.484C772.61 301.586 759.945 314.701 758.792 326.311C757.901 341.672 769.326 344.76 774.512 346.163C774.778 346.235 775.029 346.302 775.26 346.367C794.134 348.651 802.644 335.26 799.628 324.152C799.718 323.361 798.187 315.395 791.346 289.851C787.436 275.249 787.493 264.173 789.209 255.667C780.098 265.366 765.736 265.462 756.297 265.526H756.286C754.867 265.535 753.56 265.544 752.398 265.585C745.076 265.842 735.432 274.863 731.445 278.592L731.443 278.593L731.438 278.598L731.436 278.6L731.434 278.602C730.575 279.406 729.98 279.962 729.73 280.128C725.196 259.486 740.986 252.762 749.741 250.573C744.894 237.75 749.118 230.869 757.557 226.803C767.722 223.206 776.943 231.894 776.943 238.219C776.943 244.787 773.975 246.507 770.067 247.601C766.159 248.696 761 245.569 761.312 239.47C751.932 256.515 770.067 258.392 779.916 252.136C792.554 243.361 787.937 232.464 785.842 227.518L785.84 227.513C785.733 227.261 785.632 227.024 785.541 226.803C775.695 210.54 759.905 212.103 753.024 221.33C752.346 221.747 747.021 227.866 731.137 249.009C711.791 274.761 693.929 276.459 684.06 277.397L683.299 277.47C673.607 278.408 662.038 273.717 648.594 267.462C646.342 272.716 641.194 274.342 638.901 274.499C633.775 274.848 628.58 273.48 626.642 270.302C624.705 273.48 619.51 274.848 614.384 274.499C612.091 274.342 606.943 272.716 604.691 267.462C591.247 273.717 579.678 278.408 569.986 277.47C569.738 277.446 569.484 277.422 569.225 277.397C559.356 276.459 541.494 274.761 522.148 249.009C506.264 227.866 500.939 221.747 500.261 221.33C493.379 212.103 477.59 210.54 467.744 226.803C467.692 226.928 467.638 227.057 467.581 227.192C467.537 227.296 467.492 227.404 467.445 227.514L467.443 227.518C465.348 232.464 460.73 243.361 473.369 252.136C483.218 258.392 501.352 256.515 491.972 239.47C492.285 245.569 487.126 248.696 483.218 247.601C479.31 246.507 476.342 244.787 476.342 238.219C476.342 231.894 485.563 223.206 495.728 226.803C504.166 230.869 508.39 237.75 503.544 250.573C512.299 252.762 528.088 259.486 523.555 280.128C523.304 279.961 522.706 279.402 521.843 278.594L521.841 278.593L521.84 278.592C517.853 274.862 508.209 265.842 500.887 265.585C499.724 265.544 498.415 265.535 496.994 265.526H496.988C487.52 265.462 473.098 265.365 463.992 255.577C463.912 256.033 463.868 256.815 463.811 257.842C463.534 262.807 462.937 273.498 456.332 280.754V243.536C456.33 243.403 456.329 243.267 456.329 243.131C456.329 243.267 456.328 243.403 456.326 243.536V280.754C449.72 273.498 449.124 262.808 448.847 257.843C448.79 256.816 448.746 256.033 448.666 255.577C439.56 265.365 425.138 265.462 415.67 265.526H415.657C414.239 265.535 412.932 265.544 411.771 265.585C404.449 265.842 394.805 274.863 390.818 278.592L390.817 278.593L390.815 278.594C389.951 279.402 389.353 279.961 389.103 280.128C384.569 259.486 400.359 252.762 409.113 250.573C404.267 237.75 408.491 230.869 416.93 226.803C427.095 223.206 436.315 231.894 436.315 238.219C436.315 244.787 433.348 246.507 429.44 247.601C425.531 248.696 420.372 245.569 420.685 239.47C411.305 256.515 429.44 258.392 439.289 252.136C451.927 243.361 447.31 232.464 445.214 227.518C445.107 227.263 445.005 227.025 444.914 226.803C435.068 210.54 419.278 212.103 412.396 221.33C411.719 221.747 406.393 227.866 390.51 249.009C371.163 274.761 353.301 276.459 343.432 277.397L342.672 277.47C332.979 278.408 321.411 273.717 307.966 267.462C305.715 272.716 300.566 274.342 298.274 274.499C292.733 274.876 287.111 273.248 285.611 269.494C297.367 267.868 295.512 252.032 293.115 244.317C292.18 238.531 292.614 234.966 293.74 230.713C298.117 215.825 308.91 210.852 316.411 207.568C322.824 206.474 327.827 205.739 334.702 207.412C340.486 208.819 348.456 220.392 349.707 222.737C351.789 221.904 357.816 214.042 359.578 211.744C359.801 211.454 359.955 211.253 360.025 211.165C366.438 211.322 370.19 208.194 371.44 206.317H407.084C399.268 212.885 378.316 217.889 370.968 218.515C376.753 222.581 383.944 229.931 387.54 234.622C378.281 234.622 370.029 230.341 365.722 228.106C365.229 227.85 364.788 227.621 364.402 227.429C370.812 252.606 352.68 259.017 349.085 259.017C357.305 246.551 354.166 240.495 351.879 236.081C351.469 235.291 351.086 234.553 350.801 233.84C349.742 248.522 341.214 252.949 337.69 254.778C337.574 254.838 337.462 254.896 337.357 254.951C330.634 258.079 324.537 255.733 323.13 254.951C317.815 251.355 315.314 247.601 315.627 240.095C315.93 232.808 323.751 230.237 325.495 229.664C325.547 229.647 325.594 229.632 325.635 229.618C319.382 242.441 326.729 246.663 330.638 246.663C342.831 246.663 342.672 229.618 341.112 226.334C334.389 210.383 320.473 216.013 318.44 216.951C302.972 227.892 304.841 238.833 305.776 244.309L305.778 244.317C313.942 268.671 335.499 268.347 341.801 268.253C342.136 268.248 342.428 268.243 342.672 268.243C366.697 268.093 383.8 244.572 396.334 227.332C396.85 226.623 397.357 225.925 397.858 225.239C410.52 207.881 416.464 206.317 426 206.317C449.932 206.317 456.325 231.535 456.329 243.107C456.333 231.535 462.726 206.317 486.657 206.317C496.193 206.317 502.137 207.881 514.8 225.239C515.295 225.918 515.797 226.608 516.307 227.309L516.324 227.332C528.858 244.572 545.96 268.093 569.986 268.243L570.091 268.244C570.141 268.244 570.193 268.244 570.247 268.245C570.429 268.246 570.63 268.249 570.85 268.253L570.856 268.253C577.159 268.347 598.715 268.671 606.88 244.317L606.882 244.309C607.817 238.833 609.686 227.892 594.217 216.951C592.185 216.013 578.268 210.383 571.546 226.334C569.986 229.618 569.826 246.663 582.02 246.663C585.928 246.663 593.276 242.441 587.023 229.618C587.064 229.632 587.111 229.647 587.163 229.664C588.906 230.237 596.728 232.808 597.031 240.095C597.344 247.601 594.842 251.355 589.527 254.951C588.12 255.733 582.023 258.079 575.301 254.951L575.128 254.861L574.969 254.778L574.967 254.778C571.444 252.949 562.915 248.522 561.856 233.84C561.571 234.553 561.189 235.29 560.779 236.081C558.492 240.495 555.353 246.551 563.573 259.017C559.977 259.017 541.846 252.606 548.255 227.429C547.87 227.621 547.429 227.85 546.936 228.106C542.628 230.341 534.377 234.622 525.118 234.622C528.714 229.931 535.905 222.581 541.689 218.515C534.342 217.889 513.39 212.885 505.573 206.317H541.217C542.468 208.194 546.22 211.322 552.633 211.165C552.703 211.253 552.857 211.454 553.08 211.744C554.842 214.043 560.868 221.904 562.951 222.737C564.201 220.392 572.171 208.819 577.956 207.412C584.831 205.739 589.834 206.474 596.246 207.568C603.747 210.852 614.54 215.825 618.918 230.713C620.043 234.966 620.478 238.531 619.543 244.317C617.174 251.942 615.334 267.501 626.642 269.432C637.951 267.501 636.111 251.942 633.742 244.317C632.807 238.531 633.242 234.966 634.367 230.713C638.745 215.825 649.538 210.852 657.039 207.568C663.451 206.474 668.454 205.739 675.329 207.412C681.114 208.819 689.084 220.392 690.334 222.737C692.416 221.904 698.442 214.044 700.205 211.745L700.208 211.741C700.316 211.6 700.408 211.48 700.481 211.385C700.559 211.284 700.617 211.21 700.652 211.165C707.065 211.322 710.817 208.194 712.068 206.317H747.711C739.895 212.885 718.943 217.889 711.596 218.515C717.38 222.581 724.571 229.931 728.167 234.622C718.908 234.622 710.657 230.341 706.349 228.106L706.347 228.105C705.855 227.85 705.414 227.621 705.03 227.429C711.439 252.606 693.308 259.017 689.712 259.017C697.932 246.551 694.794 240.495 692.506 236.082L692.505 236.08C692.096 235.29 691.714 234.552 691.429 233.84C690.37 248.522 681.841 252.949 678.318 254.778C678.201 254.838 678.089 254.896 677.984 254.951C671.262 258.079 665.165 255.733 663.758 254.951C658.442 251.355 655.941 247.601 656.254 240.095C656.557 232.808 664.379 230.237 666.122 229.664L666.174 229.647L666.262 229.618C660.009 242.441 667.356 246.663 671.265 246.663C683.459 246.663 683.299 229.618 681.739 226.334C675.017 210.383 661.1 216.013 659.068 216.951C643.599 227.892 645.468 238.833 646.403 244.309L646.405 244.317C654.57 268.671 676.126 268.347 682.429 268.253C682.763 268.248 683.055 268.243 683.299 268.243C707.325 268.093 724.427 244.571 736.961 227.332L737.496 226.597C737.829 226.14 738.158 225.687 738.485 225.239C751.148 207.881 757.091 206.317 766.628 206.317C787.255 206.317 794.852 225.053 796.56 237.636C797.079 236.797 797.58 236.016 798.047 235.286C798.188 235.067 798.325 234.853 798.459 234.643C803.425 226.866 813.409 220.882 825.687 214.557ZM199.725 368.097C214.612 363.72 219.585 352.927 222.869 345.426C223.963 339.013 224.698 334.011 223.025 327.135C222.979 326.944 222.921 326.751 222.854 326.556C224.211 328.244 225.844 329.862 227.791 331.382C235.305 337.253 240.952 339.68 261.617 333.798C262.433 333.566 263.264 333.328 264.106 333.087C284.597 327.219 312.555 319.213 331.58 333.886C331.631 333.926 331.685 333.968 331.742 334.012C331.898 334.132 332.075 334.265 332.27 334.413L332.272 334.415C337.296 338.22 354.482 351.237 345.923 375.454L345.919 375.462C343.284 380.353 338.021 390.125 319.096 389.223C316.917 388.711 302.484 384.58 307.007 367.872C307.8 364.323 318.168 350.793 327.777 358.301C330.857 360.707 334.047 368.558 321.225 374.812L321.307 374.842L321.364 374.862C323.091 375.484 330.837 378.273 335.562 372.718C340.43 366.995 340.77 362.498 338.795 356.391C338.168 354.909 334.808 349.307 327.585 347.633C327.469 347.612 327.346 347.589 327.218 347.565L327.215 347.564C323.313 346.836 313.867 345.074 303.993 355.991C304.207 355.254 304.36 354.438 304.524 353.562C305.439 348.676 306.694 341.971 320.846 337.208C318.013 334.995 299.778 328.884 289.328 352.67C289.143 352.282 288.937 351.83 288.706 351.326L288.705 351.324C286.687 346.911 282.82 338.457 275.524 332.757C275.47 338.667 276.611 348.886 278.666 355.652C272.491 351.621 252.9 342.665 242.697 343.028L270.785 364.973C272.926 364.264 277.808 364.109 282.765 368.181C282.874 368.155 283.12 368.091 283.474 367.999C286.278 367.273 295.866 364.789 298.02 365.414C297.561 368.033 296.717 382.058 300.409 386.728C304.797 392.28 309.191 394.781 314.918 397.866C322.851 399.896 334.418 402.623 347.033 393.586C350.538 390.927 353.076 388.385 355.901 383.25C358.762 375.695 367.05 362.074 377.315 368.031C378.443 364.149 375.016 359.405 370.417 356.291C368.514 355.003 363.456 353.115 358.447 355.869C351.704 342.663 345.476 331.843 337.26 326.615C337.05 326.482 336.835 326.345 336.616 326.205C328.262 320.868 313.141 311.209 282.041 319.591C256.508 326.473 248.544 328.016 247.753 327.928C236.65 330.961 223.245 322.473 225.499 303.595C225.563 303.364 225.631 303.114 225.702 302.847C227.096 297.659 230.167 286.229 245.528 287.095C257.141 288.23 270.276 300.873 252.39 308.53C256.391 303.917 254.251 298.276 250.497 296.733C246.744 295.189 243.346 294.718 239.303 299.893C235.409 304.877 237.326 317.4 247.551 320.824C256.704 322.815 264.268 319.994 268.344 306.905C276.591 310.57 293.173 314.992 302.309 295.935C302.008 295.912 301.192 295.985 300.012 296.09C294.574 296.574 281.421 297.745 275.492 293.439C274.55 292.755 273.512 291.955 272.384 291.086C264.884 285.307 253.459 276.504 240.257 278.611C240.475 278.202 240.922 277.559 241.51 276.714C244.348 272.631 250.46 263.839 249.722 254.055L226.808 283.384C225.948 284.453 225.032 285.746 224.12 287.22V254.753C217.552 262.57 212.548 283.521 211.922 290.869C207.856 285.085 200.507 277.893 195.815 274.298C195.815 283.556 200.096 291.808 202.331 296.116C202.587 296.608 202.816 297.05 203.009 297.435C177.832 291.025 171.42 309.157 171.42 312.752C183.886 304.532 189.942 307.671 194.356 309.958C195.146 310.368 195.884 310.751 196.597 311.036C181.915 312.095 177.488 320.623 175.66 324.147L175.578 324.303C175.547 324.364 175.516 324.423 175.486 324.48C172.358 331.203 174.704 337.3 175.486 338.707C179.083 344.022 182.836 346.523 190.342 346.211C197.629 345.907 200.2 338.086 200.773 336.342C200.79 336.29 200.806 336.243 200.819 336.202C187.996 342.456 183.774 335.108 183.774 331.2C183.774 319.006 200.819 319.165 204.103 320.725C220.054 327.448 214.424 341.364 213.486 343.397C202.545 358.865 191.604 356.997 186.128 356.061L186.12 356.06C161.767 347.895 162.09 326.338 162.184 320.036C162.189 319.701 162.194 319.409 162.194 319.165C162.344 295.14 185.865 278.038 203.105 265.503C203.814 264.988 204.512 264.48 205.198 263.98C222.556 251.317 224.12 245.373 224.12 235.837C224.12 211.605 198.265 205.355 186.902 205.511H149.683C156.939 212.117 167.629 212.713 172.594 212.99C173.622 213.047 174.404 213.091 174.86 213.171C165.072 222.277 164.975 236.7 164.911 246.168C164.902 247.591 164.893 248.902 164.852 250.066C164.595 257.388 155.575 267.033 151.845 271.02L151.845 271.02C151.036 271.885 150.476 272.483 150.309 272.734C170.951 277.268 177.675 261.478 179.864 252.724C192.688 257.57 199.568 253.346 203.634 244.907C207.231 234.742 198.544 225.522 192.218 225.522C185.651 225.522 183.93 228.489 182.836 232.397C181.741 236.306 184.869 241.465 190.967 241.152C173.922 250.532 172.046 232.397 178.301 222.548C187.076 209.91 197.973 214.527 202.919 216.623C203.174 216.731 203.412 216.832 203.634 216.923C219.898 226.769 218.334 242.559 209.107 249.441C208.69 250.118 202.571 255.444 181.428 271.327C155.676 290.674 153.978 308.536 153.04 318.405L153.038 318.425L153.03 318.511C153.009 318.733 152.988 318.951 152.967 319.165C152.029 328.858 156.72 340.426 162.976 353.871C157.721 356.122 156.095 361.271 155.939 363.564C155.561 369.104 157.19 374.726 160.943 376.227C157.19 377.727 155.561 383.349 155.939 388.889C156.095 391.182 157.721 396.331 162.976 398.582C156.72 412.027 152.029 423.595 152.967 433.288L152.979 433.411C152.999 433.619 153.019 433.832 153.04 434.048C153.978 443.917 155.676 461.779 181.428 481.126C202.571 497.009 208.69 502.335 209.107 503.012C218.334 509.894 219.898 525.684 203.634 535.53C203.419 535.619 203.188 535.716 202.942 535.821L202.924 535.828L202.919 535.83C197.973 537.926 187.076 542.543 178.301 529.905C172.046 520.056 173.922 501.921 190.967 511.301C184.869 510.988 181.741 516.147 182.836 520.056C183.93 523.964 185.651 526.931 192.218 526.931C198.544 526.931 207.231 517.711 203.634 507.546C199.568 499.107 192.688 494.883 179.864 499.729C177.675 490.975 170.951 475.185 150.309 479.719C150.476 479.97 151.036 480.568 151.845 481.434C155.575 485.421 164.595 495.065 164.852 502.387C164.893 503.551 164.902 504.862 164.911 506.286C164.975 515.753 165.072 530.176 174.86 539.281C174.404 539.362 173.622 539.406 172.594 539.463C167.629 539.74 156.939 540.336 149.683 546.942H186.902C198.265 547.098 224.12 540.848 224.12 516.616C224.12 507.08 222.556 501.136 205.198 488.473C204.865 488.23 204.529 487.986 204.19 487.739L203.122 486.962L203.105 486.95C185.866 474.415 162.344 457.313 162.194 433.288C162.194 433.223 162.193 433.155 162.193 433.084C162.191 432.886 162.188 432.663 162.184 432.417C162.09 426.115 161.767 404.558 186.12 396.393L186.128 396.392C191.604 395.457 202.545 393.588 213.486 409.056C214.424 411.089 220.054 425.005 204.103 431.728C200.819 433.288 183.774 433.447 183.774 421.253C183.774 417.345 187.996 409.997 200.819 416.251C200.806 416.21 200.79 416.163 200.773 416.111C200.2 414.367 197.629 406.546 190.342 406.242C182.836 405.93 179.083 408.431 175.486 413.746C174.704 415.153 172.358 421.25 175.486 427.973C175.541 428.078 175.598 428.189 175.659 428.305L175.66 428.306C177.488 431.83 181.915 440.358 196.597 441.417C195.884 441.702 195.146 442.085 194.356 442.495C189.942 444.782 183.886 447.921 171.42 439.701C171.42 443.296 177.832 461.428 203.009 455.018C202.816 455.403 202.588 455.843 202.332 456.335L202.331 456.338C200.096 460.645 195.815 468.897 195.815 478.155C200.507 474.56 207.856 467.368 211.922 461.584C212.548 468.932 217.552 489.883 224.12 497.7V462.056C222.243 460.806 219.116 457.054 219.272 450.641C219.184 450.571 218.983 450.416 218.693 450.194C216.394 448.431 208.533 442.405 207.7 440.323C210.046 439.072 221.618 431.102 223.025 425.318C224.698 418.442 223.963 413.44 222.869 407.027C219.585 399.526 214.612 388.733 199.725 384.356C195.471 383.23 191.906 382.796 186.12 383.73C178.405 386.128 162.569 387.983 160.943 376.227C162.569 364.47 178.405 366.325 186.12 368.723C191.906 369.657 195.471 369.223 199.725 368.097ZM222.869 1027.49C219.585 1034.99 214.612 1045.78 199.725 1050.16C195.471 1051.29 191.906 1051.72 186.12 1050.79C178.405 1048.39 162.569 1046.53 160.943 1058.29C157.19 1056.79 155.561 1051.17 155.939 1045.63C156.095 1043.33 157.721 1038.19 162.976 1035.93C156.72 1022.49 152.029 1010.92 152.967 1001.23C152.991 1000.98 153.015 1000.73 153.04 1000.47C153.978 990.599 155.676 972.737 181.428 953.391C202.571 937.508 208.69 932.182 209.107 931.504C218.334 924.623 219.898 908.833 203.634 898.987C203.414 898.896 203.176 898.795 202.924 898.688L202.919 898.686C197.973 896.591 187.076 891.974 178.301 904.612C172.046 914.461 173.922 932.596 190.967 923.216C184.869 923.528 181.741 918.369 182.836 914.461C183.93 910.553 185.651 907.585 192.218 907.585C198.544 907.585 207.231 916.806 203.634 926.971C199.568 935.41 192.688 939.634 179.864 934.787C177.675 943.542 170.951 959.332 150.309 954.798C150.476 954.547 151.036 953.948 151.845 953.083C155.574 949.096 164.595 939.452 164.852 932.13C164.893 930.965 164.902 929.654 164.911 928.231C164.975 918.763 165.072 904.341 174.86 895.235C174.404 895.155 173.622 895.111 172.594 895.054C167.629 894.777 156.939 894.18 149.683 887.575H186.902C187.036 887.573 187.172 887.572 187.311 887.572C187.172 887.572 187.036 887.571 186.902 887.569H149.683C156.939 880.963 167.629 880.367 172.594 880.09C173.622 880.033 174.404 879.989 174.86 879.909C165.072 870.803 164.975 856.381 164.911 846.913C164.902 845.49 164.893 844.179 164.852 843.014C164.595 835.692 155.575 826.048 151.846 822.061C151.036 821.196 150.476 820.597 150.309 820.346C170.951 815.812 177.675 831.602 179.864 840.357C192.688 835.51 199.568 839.734 203.634 848.173C207.231 858.338 198.544 867.558 192.218 867.558C185.651 867.558 183.93 864.591 182.836 860.683C181.741 856.775 184.869 851.616 190.967 851.928C173.922 842.548 172.046 860.683 178.301 870.532C187.076 883.17 197.973 878.553 202.919 876.457C203.105 876.379 203.282 876.304 203.45 876.233C203.513 876.207 203.574 876.182 203.634 876.157C219.898 866.311 218.334 850.521 209.107 843.64C208.69 842.962 202.571 837.636 181.428 821.753C155.676 802.407 153.978 784.544 153.04 774.676C153.015 774.417 152.991 774.163 152.967 773.915C152.029 764.223 156.72 752.654 162.976 739.209C157.721 736.958 156.095 731.81 155.939 729.517C155.561 723.976 157.19 718.355 160.943 716.854C162.569 728.61 178.405 726.755 186.12 724.358C191.906 723.423 195.471 723.857 199.725 724.983C214.612 729.36 219.585 740.153 222.869 747.654C223.963 754.067 224.698 759.07 223.025 765.945C221.618 771.73 210.046 779.7 207.7 780.95C208.533 783.032 216.394 789.059 218.693 790.821L219.001 791.057C219.128 791.155 219.22 791.227 219.272 791.268C219.116 797.681 222.243 801.433 224.12 802.684V838.327C217.552 830.511 212.548 809.559 211.922 802.211C207.856 807.996 200.507 815.187 195.815 818.783C195.815 809.524 200.096 801.273 202.331 796.965C202.587 796.472 202.816 796.031 203.009 795.645C177.832 802.055 171.42 783.924 171.42 780.328C183.886 788.548 189.942 785.41 194.356 783.122L194.357 783.121C195.147 782.712 195.885 782.329 196.597 782.045C181.915 780.985 177.488 772.457 175.66 768.934C175.599 768.817 175.541 768.705 175.486 768.6C172.358 761.878 174.704 755.781 175.486 754.374C179.083 749.058 182.836 746.557 190.342 746.87C197.629 747.173 200.2 754.995 200.773 756.738C200.79 756.79 200.806 756.837 200.819 756.878C187.996 750.625 183.774 757.972 183.774 761.881C183.774 774.075 200.819 773.915 204.103 772.355C220.054 765.633 214.424 751.716 213.486 749.684C202.545 734.215 191.604 736.084 186.128 737.019L186.12 737.021C161.767 745.185 162.09 766.742 162.184 773.045V773.049L162.184 773.05L162.185 773.063C162.189 773.39 162.194 773.675 162.194 773.915C162.344 797.94 185.865 815.043 203.105 827.577C203.814 828.093 204.512 828.6 205.198 829.101C222.556 841.764 224.12 847.707 224.12 857.244C224.12 881.177 198.898 887.569 187.328 887.572C198.898 887.575 224.12 893.967 224.12 917.9C224.12 927.437 222.556 933.38 205.198 946.043C204.512 946.544 203.814 947.051 203.105 947.567C185.866 960.101 162.344 977.204 162.194 1001.23C162.194 1001.47 162.189 1001.76 162.184 1002.1V1002.1C162.09 1008.4 161.767 1029.96 186.12 1038.12L186.128 1038.12C191.604 1039.06 202.545 1040.93 213.486 1025.46C214.424 1023.43 220.054 1009.51 204.103 1002.79C200.819 1001.23 183.774 1001.07 183.774 1013.26C183.774 1017.17 187.996 1024.52 200.819 1018.27C200.806 1018.31 200.79 1018.35 200.773 1018.41C200.2 1020.15 197.629 1027.97 190.342 1028.27C182.836 1028.59 179.083 1026.09 175.486 1020.77C174.704 1019.36 172.358 1013.27 175.486 1006.54L175.548 1006.43L175.626 1006.28L175.627 1006.27L175.659 1006.21L175.66 1006.21C177.488 1002.69 181.915 994.159 196.597 993.099C195.884 992.814 195.146 992.432 194.356 992.022C189.942 989.734 183.886 986.596 171.42 994.816C171.42 991.22 177.832 973.089 203.009 979.498C202.816 979.113 202.587 978.672 202.331 978.179C200.096 973.871 195.815 965.62 195.815 956.361C200.507 959.957 207.856 967.148 211.922 972.932C212.548 965.585 217.552 944.633 224.12 936.817V972.46C222.275 973.69 219.221 977.337 219.267 983.553C220.734 983.305 222.364 983.321 224.1 983.782C227.471 969.342 230.916 957.343 237.634 950.294C237.806 950.113 237.981 949.929 238.16 949.74C244.987 942.552 257.343 929.542 289.546 930.203C315.984 930.745 324.086 930.329 324.832 930.053C336.339 930.329 347.311 918.867 340.585 901.085C340.558 901.036 340.53 900.986 340.502 900.936C340.47 900.879 340.437 900.821 340.405 900.762C340.341 900.648 340.276 900.529 340.208 900.407C337.608 895.706 331.88 885.35 317.177 889.883C306.178 893.775 296.467 909.205 315.669 912.339C310.676 908.822 311.398 902.833 314.67 900.432C317.943 898.031 321.127 896.757 326.296 900.809C331.274 904.711 332.423 917.328 323.322 923.108C314.915 927.242 306.894 926.321 299.792 914.596C292.668 920.136 277.635 928.414 264.186 912.112C264.472 912.017 265.281 911.892 266.449 911.71L266.452 911.71L266.453 911.71C271.848 910.873 284.897 908.847 289.616 903.243C290.367 902.352 291.183 901.326 292.068 900.212C297.959 892.799 306.933 881.509 320.254 880.381C319.945 880.036 319.356 879.519 318.583 878.84C314.846 875.559 306.8 868.494 305.165 858.82L334.457 881.78C334.526 881.833 334.596 881.886 334.665 881.941C334.596 881.885 334.527 881.831 334.459 881.776L305.167 858.815C314.953 858.092 323.734 864.218 327.813 867.063C328.657 867.652 329.3 868.1 329.708 868.318C327.622 855.113 336.443 843.703 342.234 836.212C343.104 835.086 343.906 834.049 344.592 833.107C348.907 827.186 347.758 814.031 347.283 808.592L347.282 808.591C347.179 807.412 347.108 806.595 347.131 806.295C366.174 815.461 361.725 832.036 358.047 840.277C371.129 844.374 373.938 851.943 371.932 861.093C368.492 871.312 355.966 873.209 350.988 869.307C345.819 865.255 346.296 861.859 347.846 858.107C349.395 854.356 355.04 852.225 359.647 856.234C352.018 838.336 339.354 851.451 338.201 863.061C337.31 878.421 348.734 881.51 353.92 882.912C354.187 882.984 354.437 883.052 354.668 883.117C373.542 885.401 382.052 872.009 379.037 860.901C379.126 860.111 377.596 852.144 370.755 826.6C362.423 795.487 372.106 780.382 377.456 772.036L377.472 772.01C377.607 771.8 377.739 771.594 377.868 771.393C383.109 763.185 393.938 756.975 407.155 750.253C404.409 745.239 406.305 740.184 407.596 738.283C410.717 733.689 415.467 730.27 419.347 731.404C413.374 741.66 426.982 749.969 434.532 752.842C439.663 755.676 442.201 758.218 444.854 761.728C453.87 774.357 451.125 785.919 449.083 793.849C445.988 799.571 443.48 803.961 437.922 808.34C433.245 812.025 419.221 811.158 416.603 810.695C415.975 812.848 418.443 822.438 419.165 825.245L419.165 825.246C419.257 825.6 419.32 825.846 419.346 825.955C415.266 830.905 415.413 835.787 416.118 837.93L394.129 865.982C393.782 855.778 402.769 836.202 406.81 830.033C400.042 832.077 389.821 833.203 383.91 833.138C389.622 825.852 398.082 821.998 402.498 819.987C403.004 819.757 403.456 819.551 403.845 819.366C380.076 808.879 386.216 790.653 388.434 787.823C393.174 801.984 399.876 803.249 404.761 804.172L404.763 804.172L404.764 804.172C405.638 804.337 406.454 804.492 407.19 804.707C396.289 794.816 398.066 785.373 398.8 781.471L398.803 781.456C398.826 781.332 398.849 781.214 398.869 781.102C400.555 773.881 406.163 770.53 407.646 769.905C413.756 767.941 418.253 768.288 423.967 773.164C429.515 777.899 426.714 785.64 426.089 787.366C426.07 787.418 426.053 787.464 426.039 787.505C419.805 774.673 411.949 777.851 409.538 780.926C402.015 790.523 415.528 800.914 419.075 801.712C435.776 806.261 439.931 791.836 440.446 789.657C441.379 770.733 431.615 765.455 426.728 762.812L426.72 762.808C402.517 754.21 389.473 771.375 385.659 776.393L385.657 776.395C385.455 776.661 385.279 776.893 385.129 777.085C370.426 796.086 378.387 824.057 384.222 844.557C384.462 845.4 384.698 846.23 384.929 847.047C390.778 867.722 388.342 873.364 382.459 880.87C367.756 899.626 344.101 889.265 334.909 882.131C344.031 889.354 359.743 909.851 345.04 928.608C339.157 936.113 334.259 939.826 312.786 939.084C312.302 939.067 311.814 939.05 311.321 939.032L310.199 938.992C288.898 938.221 259.835 937.17 244.895 955.986C244.745 956.178 244.561 956.405 244.351 956.665C240.388 961.567 226.835 978.333 240.965 999.783L240.971 999.79C244.703 1003.9 252.161 1012.12 270.315 1006.7C272.307 1005.68 285.323 998.2 276.917 983.069C275.295 979.815 261.978 969.174 254.455 978.771C252.044 981.846 250.834 990.234 264.784 993.223L264.744 993.25L264.661 993.305C263.135 994.324 256.286 998.893 250.364 994.636C244.263 990.252 242.853 985.968 243.301 979.566C243.554 977.976 245.469 971.73 252.078 968.369C252.185 968.321 252.297 968.27 252.415 968.216L252.42 968.214C256.033 966.569 264.778 962.588 276.987 970.812C276.602 970.148 276.257 969.392 275.888 968.582C273.825 964.059 270.995 957.852 256.113 956.631C258.331 953.801 274.563 943.486 290.424 964.063C290.51 963.641 290.602 963.153 290.704 962.607C291.603 957.838 293.324 948.703 299.036 941.416C300.51 947.14 301.858 957.334 301.49 964.395C306.515 958.998 323.379 945.595 333.37 943.495L311.38 971.548C309.132 971.375 304.356 972.398 300.523 977.542C300.461 977.542 300.358 977.542 300.216 977.54L299.791 977.536C296.895 977.505 286.99 977.398 285.05 978.523C286.124 980.954 290.315 994.366 287.854 999.787C284.929 1006.23 281.265 1009.71 276.447 1014.09C269.235 1017.96 258.663 1023.39 244.246 1017.65C240.204 1015.91 237.13 1014.05 233.153 1009.75C229.259 1004.11 220.53 995.185 212.763 997.625C216.935 1000.79 222.113 1005.45 223.025 1009.2C224.698 1016.07 223.963 1021.08 222.869 1027.49ZM419.347 731.404C417.315 727.913 419.484 722.505 423.184 718.398C424.715 716.699 429.156 713.669 434.673 715.147C438.005 700.757 441.416 688.801 448.106 681.788C448.277 681.609 448.452 681.425 448.63 681.237C455.428 674.086 467.731 661.142 499.878 661.875C526.27 662.477 534.356 662.081 535.1 661.807C546.587 662.109 557.512 650.706 550.758 632.96C550.641 632.754 550.517 632.531 550.385 632.293L550.38 632.284C547.774 627.591 542.033 617.252 527.366 621.738C516.396 625.593 506.738 640.956 525.913 644.124C520.921 640.607 521.627 634.636 524.888 632.25C528.149 629.864 531.325 628.601 536.494 632.653C541.472 636.555 542.648 649.137 533.576 654.88C525.195 658.982 517.186 658.045 510.07 646.338C502.971 651.845 487.984 660.065 474.522 643.779C474.806 643.686 475.607 643.564 476.763 643.387L476.771 643.386L476.781 643.384L476.784 643.384C482.167 642.561 495.188 640.572 499.886 634.995C500.633 634.108 501.445 633.087 502.327 631.978C508.19 624.601 517.122 613.364 530.416 612.27C530.107 611.926 529.518 611.409 528.744 610.73C525.006 607.45 516.959 600.388 515.305 590.738L544.596 613.699C553.636 620.587 570.146 641.433 555.268 660.413C549.413 667.883 544.533 671.574 523.096 670.784C522.25 670.753 521.388 670.72 520.514 670.686C499.25 669.869 470.237 668.754 455.367 687.48C455.299 687.566 455.225 687.66 455.145 687.76C455.053 687.875 454.953 687.998 454.846 688.13L454.825 688.156C450.881 693.035 437.391 709.72 451.544 731.14L451.55 731.146C455.286 735.257 462.749 743.471 480.857 738.104C482.844 737.091 495.819 729.663 487.393 714.557C485.766 711.309 472.449 700.669 464.962 710.22C462.562 713.281 461.374 721.642 475.306 724.654C475.27 724.678 475.229 724.705 475.183 724.735C473.662 725.747 466.836 730.288 460.915 726.03C454.815 721.644 453.397 717.369 453.83 710.987C454.078 709.403 455.976 703.18 462.565 699.844C462.663 699.8 462.767 699.753 462.875 699.704L462.906 699.69C466.509 698.058 475.229 694.109 487.435 702.337C487.049 701.674 486.703 700.919 486.332 700.11C484.263 695.595 481.424 689.401 466.566 688.149C468.774 685.333 484.952 675.086 500.832 695.639C500.876 695.422 500.921 695.187 500.969 694.936C501.012 694.707 501.057 694.465 501.105 694.21L501.109 694.188L501.109 694.187C501.995 689.434 503.692 680.33 509.377 673.077C510.861 678.788 512.23 688.955 511.879 695.994C516.882 690.625 533.685 677.301 543.653 675.23L521.768 703.15C519.523 702.972 514.758 703.981 510.944 709.101C510.832 709.101 510.578 709.098 510.213 709.093C507.322 709.056 497.435 708.926 495.501 710.043C496.579 712.47 500.793 725.852 498.349 731.251C495.444 737.669 491.795 741.134 486.996 745.482C479.806 749.331 469.265 754.718 454.861 748.962C450.822 747.22 447.749 745.36 443.769 741.059C439.169 734.422 427.845 723.199 419.347 731.404ZM160.943 716.854C157.19 715.36 155.561 709.765 155.939 704.251C156.095 701.969 157.721 696.845 162.976 694.604C156.72 681.223 152.029 669.709 152.967 660.063C152.991 659.824 153.014 659.58 153.038 659.331L153.04 659.306C153.978 649.484 155.676 631.707 181.428 612.452C202.571 596.644 208.69 591.343 209.107 590.669C218.334 583.82 219.898 568.105 203.634 558.306C203.412 558.214 203.174 558.114 202.919 558.007C197.973 555.921 187.076 551.325 178.301 563.904C172.046 573.706 173.922 591.755 190.967 582.419C184.869 582.731 181.741 577.596 182.836 573.706C183.93 569.817 185.651 566.863 192.218 566.863C198.544 566.863 207.231 576.04 203.634 586.157C199.568 594.556 192.688 598.76 179.864 593.936C177.675 602.649 170.951 618.364 150.309 613.852C150.476 613.602 151.036 613.007 151.845 612.146C155.574 608.178 164.595 598.579 164.852 591.291C164.893 590.132 164.902 588.827 164.911 587.411C164.975 577.988 165.072 563.634 174.86 554.572C174.404 554.491 173.622 554.448 172.594 554.391C167.629 554.115 156.939 553.522 149.683 546.948H186.902C198.265 546.792 224.12 553.013 224.12 577.129C224.12 586.62 222.556 592.536 205.198 605.139C204.514 605.635 203.818 606.139 203.111 606.65L203.105 606.655C185.866 619.13 162.344 636.151 162.194 660.063C162.194 660.305 162.189 660.595 162.184 660.927V660.929C162.09 667.202 161.767 688.656 186.12 696.782L186.128 696.784C191.604 697.715 202.545 699.575 213.486 684.18C214.424 682.157 220.054 668.306 204.103 661.616C200.819 660.063 183.774 659.904 183.774 672.04C183.774 675.93 187.996 683.243 200.819 677.019L200.808 677.054L200.773 677.159C200.2 678.894 197.629 686.678 190.342 686.98C182.836 687.291 179.083 684.802 175.486 679.512C174.704 678.111 172.358 672.043 175.486 665.353C175.541 665.248 175.599 665.137 175.66 665.021C177.488 661.514 181.915 653.026 196.597 651.972C195.884 651.688 195.146 651.308 194.356 650.9C189.942 648.623 183.886 645.499 171.42 653.68C171.42 650.102 177.832 632.056 203.009 638.436C202.816 638.052 202.587 637.613 202.331 637.122C200.096 632.835 195.815 624.623 195.815 615.408C200.507 618.987 207.856 626.144 211.922 631.901C212.548 624.588 217.552 603.735 224.12 595.956V631.431C222.243 632.676 219.116 636.41 219.272 642.792C219.234 642.822 219.175 642.868 219.097 642.928C219.001 643.002 218.877 643.096 218.728 643.21L218.692 643.237C216.393 644.991 208.533 650.989 207.7 653.061C210.046 654.306 221.618 662.238 223.025 667.995C224.698 674.838 223.963 679.817 222.869 686.199C219.585 693.665 214.612 704.406 199.725 708.763C195.471 709.883 191.906 710.316 186.12 709.385C178.405 707 162.569 705.153 160.943 716.854Z" fill="url(#paint4_linear_39_9)"/>
<path d="M871.736 1058.29H890V1055.85C885.788 1055.19 880.969 1055.31 875.479 1056.61L875.471 1056.61C874.404 1057.04 873.117 1057.57 871.736 1058.29Z" fill="url(#paint5_linear_39_9)"/>
<defs>
<linearGradient id="paint0_linear_39_9" x1="445" y1="0" x2="445" y2="1058.29" gradientUnits="userSpaceOnUse">
<stop stop-color="#117DD3"/>
<stop offset="1" stop-color="#07528E"/>
</linearGradient>
<linearGradient id="paint1_linear_39_9" x1="445" y1="0" x2="445" y2="1058.29" gradientUnits="userSpaceOnUse">
<stop stop-color="#117DD3"/>
<stop offset="1" stop-color="#07528E"/>
</linearGradient>
<linearGradient id="paint2_linear_39_9" x1="445" y1="0" x2="445" y2="1058.29" gradientUnits="userSpaceOnUse">
<stop stop-color="#117DD3"/>
<stop offset="1" stop-color="#07528E"/>
</linearGradient>
<linearGradient id="paint3_linear_39_9" x1="445" y1="0" x2="445" y2="1058.29" gradientUnits="userSpaceOnUse">
<stop stop-color="#117DD3"/>
<stop offset="1" stop-color="#07528E"/>
</linearGradient>
<linearGradient id="paint4_linear_39_9" x1="445" y1="0" x2="445" y2="1058.29" gradientUnits="userSpaceOnUse">
<stop stop-color="#117DD3"/>
<stop offset="1" stop-color="#07528E"/>
</linearGradient>
<linearGradient id="paint5_linear_39_9" x1="445" y1="0" x2="445" y2="1058.29" gradientUnits="userSpaceOnUse">
<stop stop-color="#117DD3"/>
<stop offset="1" stop-color="#07528E"/>
</linearGradient>
</defs>
</svg>
